<?xml version="1.0" standalone="no"?>
<!DOCTYPE svg PUBLIC "-//W3C//DTD SVG 20010904//EN"
 "http://www.w3.org/TR/2001/REC-SVG-20010904/DTD/svg10.dtd">
<svg version="1.0" xmlns="http://www.w3.org/2000/svg"
 width="32.000000pt" height="32.000000pt" viewBox="0 0 32.000000 32.000000"
 preserveAspectRatio="xMidYMid meet">

<g transform="translate(0.000000,32.000000) scale(0.100000,-0.100000)"
fill="#000000" stroke="none">
<path d="M52 288 c-17 -17 -17 -239 0 -256 16 -16 200 -16 216 0 17 17 17 239
0 256 -16 16 -200 16 -216 0z m86 -105 c-14 -17 18 -56 41 -48 9 2 23 0 31 -5
13 -8 13 -11 -1 -26 -15 -14 -19 -14 -46 0 -52 26 -85 106 -50 119 19 7 39
-23 25 -40z"/>
</g>
</svg>
