<?xml version="1.0" encoding="UTF-8"?>
<svg version="1.1" xmlns="http://www.w3.org/2000/svg" width="32" height="32">
<path d="M0 0 C0.66209473 -0.00095673 1.32418945 -0.00191345 2.00634766 -0.00289917 C3.40852961 -0.00358076 4.8107147 -0.00172792 6.21289062 0.00244141 C8.36595713 0.00779004 10.51881502 0.0024958 12.671875 -0.00390625 C14.03125046 -0.00324546 15.3906258 -0.00196429 16.75 0 C18.61785156 0.00169189 18.61785156 0.00169189 20.5234375 0.00341797 C23.375 0.1328125 23.375 0.1328125 24.375 1.1328125 C24.4741657 2.75538794 24.50579777 4.38221081 24.5078125 6.0078125 C24.50974609 7.48507812 24.50974609 7.48507812 24.51171875 8.9921875 C24.50785156 10.02859375 24.50398438 11.065 24.5 12.1328125 C24.50580078 13.68742187 24.50580078 13.68742187 24.51171875 15.2734375 C24.51042969 16.25828125 24.50914063 17.243125 24.5078125 18.2578125 C24.50668457 19.16789062 24.50555664 20.07796875 24.50439453 21.015625 C24.375 23.1328125 24.375 23.1328125 23.375 24.1328125 C21.16849344 24.23293651 18.95877614 24.2636243 16.75 24.265625 C16.08790527 24.26658173 15.42581055 24.26753845 14.74365234 24.26852417 C13.34147039 24.26920576 11.9392853 24.26735292 10.53710938 24.26318359 C8.38404287 24.25783496 6.23118498 24.2631292 4.078125 24.26953125 C2.71874954 24.26887046 1.3593742 24.26758929 0 24.265625 C-1.24523437 24.26449707 -2.49046875 24.26336914 -3.7734375 24.26220703 C-6.625 24.1328125 -6.625 24.1328125 -7.625 23.1328125 C-7.7241657 21.51023706 -7.75579777 19.88341419 -7.7578125 18.2578125 C-7.75910156 17.27296875 -7.76039063 16.288125 -7.76171875 15.2734375 C-7.75785156 14.23703125 -7.75398437 13.200625 -7.75 12.1328125 C-7.75580078 10.57820312 -7.75580078 10.57820312 -7.76171875 8.9921875 C-7.76042969 8.00734375 -7.75914062 7.0225 -7.7578125 6.0078125 C-7.75668457 5.09773437 -7.75555664 4.18765625 -7.75439453 3.25 C-7.47430191 -1.33294948 -3.81114892 0.00345213 0 0 Z M-1.625 3.1328125 C2.69188402 7.46179316 2.69188402 7.46179316 7.375 11.1328125 C11.37801032 9.37148796 14.9778977 6.87148767 18.375 4.1328125 C18.375 3.8028125 18.375 3.4728125 18.375 3.1328125 C11.775 3.1328125 5.175 3.1328125 -1.625 3.1328125 Z M-4.625 6.1328125 C-4.65185412 8.44525042 -4.67132841 10.7577752 -4.6875 13.0703125 C-4.69910156 14.35808594 -4.71070313 15.64585938 -4.72265625 16.97265625 C-4.99032549 19.99579653 -4.99032549 19.99579653 -3.625 21.1328125 C-1.85640807 21.23227703 -0.08388549 21.26361467 1.6875 21.265625 C2.76257813 21.26691406 3.83765625 21.26820312 4.9453125 21.26953125 C6.07710937 21.26566406 7.20890625 21.26179688 8.375 21.2578125 C9.50679687 21.26167969 10.63859375 21.26554687 11.8046875 21.26953125 C12.87976563 21.26824219 13.95484375 21.26695313 15.0625 21.265625 C16.05636719 21.26449707 17.05023437 21.26336914 18.07421875 21.26220703 C20.33875226 21.3911558 20.33875226 21.3911558 21.375 20.1328125 C21.44771741 17.77967695 21.45870868 15.42447582 21.4375 13.0703125 C21.42847656 11.77996094 21.41945313 10.48960938 21.41015625 9.16015625 C21.39855469 8.16113281 21.38695313 7.16210938 21.375 6.1328125 C20.78332031 6.54273438 20.19164063 6.95265625 19.58203125 7.375 C18.79183594 7.91382813 18.00164063 8.45265625 17.1875 9.0078125 C16.41019531 9.54148437 15.63289063 10.07515625 14.83203125 10.625 C10.08778366 13.53641426 10.08778366 13.53641426 7.375 14.1328125 C4.515625 12.578125 4.515625 12.578125 1.625 10.2578125 C-1.20820026 7.575985 -1.20820026 7.575985 -4.625 6.1328125 Z " fill="#000000" transform="translate(7.625,3.8671875)"/>
</svg>
